<svg xmlns="http://www.w3.org/2000/svg" width="255.221" height="216.93" viewBox="0 0 255.221 216.93"><defs><style>.a{opacity:0.999;}.b{fill:#f01123;}.c{fill:#ababab;}.d{fill:#634480;}</style></defs><g class="a" transform="translate(-128.819 -1002.536)"><g transform="translate(181.155 1002.536)"><path class="b" d="M410.555,1019.276a38.966,38.966,0,0,1,67.718,8.993,29.833,29.833,0,0,1,1.911,15.772c-1.642,9.42-8.635,16.875-15.364,23.669-17.653,17.818-35.7,35.251-53.437,52.435l-48.633-42.509c-6.621-5.789-13.38-11.74-17.623-19.445-9.4-17.063-2.772-41.067,14.051-50.889S400.158,1003.507,410.555,1019.276Z" transform="translate(-340.831 -1002.536)"/></g><g transform="translate(273.474 1039.248)"><g transform="translate(0 0)"><path class="c" d="M772.31,1275.93c2.713-6.717,6.734-10.245,12.015-13.543,8.173-5.107,12.977-10.906,18.485-17.248,1.992-2.293,3.927-4.962,2.091-7.379-1.274-1.676-4.969-2.083-7.048-1.76-10.366,1.617-16.048,10.827-24.57,16.947-8.018,5.757-16.327,6.915-25.377,10.857s-16.436,7.751-23.844,17.465c-5.606,7.351-6.638,19.4-7.3,28.625-1.555,21.758-2.318,43.657-1.787,65.464,15.177,0,27.742.775,42.81,0a210.494,210.494,0,0,1-4.475-23.059c-1.326-11.4-3.11-23.076-3.873-34.528a25.008,25.008,0,0,1,.983-9c1.188-4.113,5.907-7.21,9.136-10.017,11.656-10.131,27.895-15.582,35.594-28.971,5.6-9.746,5.781-11.96,9.864-17.744,2.1-2.979,4.619-5.7,6.231-8.968,1.627-3.3,2.5-7.252,3.868-10.669,2.353-5.855,6.561-10.388,9.294-16.075.82-1.706,1.607-4.527.163-5.75-1.358-1.148-5.152-.419-6.7.447-9.1,5.085-12.108,12.814-18.09,23.466,3.357.516,3.469.447,5.907,2.165,1.854,1.306,1.348,3.207.467,5.3s-3.646,4.567-5.152,6.265a111.157,111.157,0,0,1-11.773,11.79c-1.612,1.378-3.184,2.367-4.9,3.614a52.15,52.15,0,0,0-6.589,5.268C775.114,1271.724,774.073,1274.165,772.31,1275.93Z" transform="translate(-714.809 -1195.486)"/><path class="c" d="M996.53,1198.061q1.511-3.606,3.024-7.216c.642-1.533,1.286-3.071,1.812-4.648.647-1.938,1.113-3.932,1.58-5.922q.833-3.555,1.664-7.109c1.19-5.083,2.4-10.21,4.661-14.913a16.78,16.78,0,0,1,2.925-4.461,8.166,8.166,0,0,1,4.616-2.52c1.842-.259,3.908,2.7,2.612,6.379-.165.474-1.511,4.631-1.772,5.87-.8,3.814-1.365,8.119-2.17,11.933-.427,2.024-1.18,7.472-1.34,8.376-.454,2.585-2.4,4.629-3.439,7.04a12.209,12.209,0,0,0-5.554.943,11.976,11.976,0,0,0-3.8,2.192C999.7,1195.37,998.051,1196.738,996.53,1198.061Z" transform="translate(-926.985 -1151.256)"/><path class="c" d="M955.612,1223.437a27.334,27.334,0,0,1,1.486-9.1c2.449-8.146,6.031-15.957,7.821-24.271.74-3.431,1.432-7.84,2.9-11.029a9.171,9.171,0,0,1,7.46-5.631,1.856,1.856,0,0,1,1.743.469,2.121,2.121,0,0,1-.022,1.955,113.33,113.33,0,0,0-4.55,16.13c-.269,1.19-1.412,6.867-1.735,8.042a27.575,27.575,0,0,1-1.711,4.152,62.561,62.561,0,0,0-3.515,9.576,5.42,5.42,0,0,1-.57,1.491,7.37,7.37,0,0,1-1.77,1.6,30.15,30.15,0,0,0-3.419,3.733A9.186,9.186,0,0,1,955.612,1223.437Z" transform="translate(-896.154 -1167.915)"/><path class="c" d="M913.8,1285.107c-.2-2.841,1.422-5.441,2.661-8.006,3.1-6.426,3.989-13.661,4.87-20.743a16.646,16.646,0,0,1,1.424-5.734,5.661,5.661,0,0,1,4.629-3.256,4.93,4.93,0,0,1,1.516.225c1.15.343.792,2.261.523,3.054-.341.995-.131,6.759-.773,8.267a78.846,78.846,0,0,0-5.609,21.459A61.874,61.874,0,0,0,913.8,1285.107Z" transform="translate(-864.663 -1223.641)"/></g></g><g transform="translate(128.819 1002.536)"><g transform="translate(0 0)"><g transform="translate(0 36.713)"><path class="c" d="M181.883,1275.93c-2.713-6.717-6.734-10.245-12.015-13.543-8.173-5.107-12.977-10.906-18.485-17.248-1.992-2.293-3.927-4.962-2.091-7.379,1.274-1.676,4.969-2.083,7.048-1.76,10.366,1.617,16.048,10.827,24.57,16.947,8.018,5.757,16.327,6.915,25.377,10.857s16.436,7.751,23.844,17.465c5.606,7.351,6.638,19.4,7.3,28.625,1.555,21.758,2.318,43.657,1.787,65.464-15.177,0-27.742.775-42.81,0a210.53,210.53,0,0,0,4.476-23.059c1.326-11.4,3.11-23.076,3.873-34.528a25.006,25.006,0,0,0-.983-9c-1.187-4.113-5.907-7.21-9.136-10.017-11.657-10.131-27.895-15.582-35.594-28.971-5.6-9.746-5.781-11.96-9.864-17.744-2.1-2.979-4.619-5.7-6.231-8.968-1.627-3.3-2.5-7.252-3.868-10.669-2.353-5.855-6.561-10.388-9.294-16.075-.82-1.706-1.607-4.527-.163-5.75,1.358-1.148,5.152-.419,6.7.447,9.1,5.085,12.108,12.814,18.09,23.466-3.357.516-3.468.447-5.907,2.165-1.854,1.306-1.348,3.207-.467,5.3s3.646,4.567,5.152,6.265a111.153,111.153,0,0,0,11.773,11.79c1.612,1.378,3.184,2.367,4.9,3.614a52.149,52.149,0,0,1,6.589,5.268C179.079,1271.724,180.121,1274.165,181.883,1275.93Z" transform="translate(-128.819 -1195.486)"/><path class="c" d="M223.907,1198.061q-1.511-3.606-3.024-7.216c-.642-1.533-1.286-3.071-1.812-4.648-.647-1.938-1.113-3.932-1.58-5.922q-.833-3.555-1.664-7.109c-1.19-5.083-2.4-10.21-4.661-14.913a16.782,16.782,0,0,0-2.925-4.461,8.166,8.166,0,0,0-4.616-2.52c-1.842-.259-3.908,2.7-2.612,6.379.165.474,1.511,4.631,1.772,5.87.8,3.814,1.365,8.119,2.17,11.933.427,2.024,1.18,7.472,1.34,8.376.454,2.585,2.4,4.629,3.439,7.04a12.21,12.21,0,0,1,5.554.943,11.975,11.975,0,0,1,3.8,2.192C220.737,1195.37,222.386,1196.738,223.907,1198.061Z" transform="translate(-182.886 -1151.256)"/><path class="c" d="M269.837,1223.437a27.336,27.336,0,0,0-1.486-9.1c-2.449-8.146-6.031-15.957-7.82-24.271-.741-3.431-1.432-7.84-2.9-11.029a9.171,9.171,0,0,0-7.46-5.631,1.855,1.855,0,0,0-1.743.469,2.121,2.121,0,0,0,.022,1.955,113.31,113.31,0,0,1,4.55,16.13c.269,1.19,1.412,6.867,1.735,8.042a27.561,27.561,0,0,0,1.711,4.152,62.561,62.561,0,0,1,3.515,9.576,5.422,5.422,0,0,0,.57,1.491,7.368,7.368,0,0,0,1.77,1.6,30.145,30.145,0,0,1,3.419,3.733A9.186,9.186,0,0,0,269.837,1223.437Z" transform="translate(-218.728 -1167.915)"/><path class="c" d="M329.172,1285.107c.2-2.841-1.422-5.441-2.661-8.006-3.1-6.426-3.989-13.661-4.871-20.743a16.646,16.646,0,0,0-1.424-5.734,5.662,5.662,0,0,0-4.629-3.256,4.929,4.929,0,0,0-1.516.225c-1.15.343-.792,2.261-.523,3.054.341.995.131,6.759.773,8.267a78.844,78.844,0,0,1,5.609,21.459A61.874,61.874,0,0,1,329.172,1285.107Z" transform="translate(-267.742 -1223.641)"/></g><path class="b" d="M410.555,1019.276a38.966,38.966,0,0,1,67.718,8.993,29.833,29.833,0,0,1,1.911,15.772c-1.642,9.42-8.635,16.875-15.364,23.669-17.653,17.818-35.7,35.251-53.437,52.435l-48.633-42.509c-6.621-5.789-13.38-11.74-17.623-19.445-9.4-17.063-2.772-41.067,14.051-50.889S400.158,1003.507,410.555,1019.276Z" transform="translate(-288.494 -1002.536)"/><g transform="translate(144.656 36.713)"><path class="d" d="M772.31,1275.93c2.713-6.717,6.734-10.245,12.015-13.543,8.173-5.107,12.977-10.906,18.485-17.248,1.992-2.293,3.927-4.962,2.091-7.379-1.274-1.676-4.969-2.083-7.048-1.76-10.366,1.617-16.048,10.827-24.57,16.947-8.018,5.757-16.327,6.915-25.377,10.857s-16.436,7.751-23.844,17.465c-5.606,7.351-6.638,19.4-7.3,28.625-1.555,21.758-2.318,43.657-1.787,65.464,15.177,0,27.742.775,42.81,0a210.494,210.494,0,0,1-4.475-23.059c-1.326-11.4-3.11-23.076-3.873-34.528a25.008,25.008,0,0,1,.983-9c1.188-4.113,5.907-7.21,9.136-10.017,11.656-10.131,27.895-15.582,35.594-28.971,5.6-9.746,5.781-11.96,9.864-17.744,2.1-2.979,4.619-5.7,6.231-8.968,1.627-3.3,2.5-7.252,3.868-10.669,2.353-5.855,6.561-10.388,9.294-16.075.82-1.706,1.607-4.527.163-5.75-1.358-1.148-5.152-.419-6.7.447-9.1,5.085-12.108,12.814-18.09,23.466,3.357.516,3.469.447,5.907,2.165,1.854,1.306,1.348,3.207.467,5.3s-3.646,4.567-5.152,6.265a111.157,111.157,0,0,1-11.773,11.79c-1.612,1.378-3.184,2.367-4.9,3.614a52.15,52.15,0,0,0-6.589,5.268C775.114,1271.724,774.073,1274.165,772.31,1275.93Z" transform="translate(-714.809 -1195.486)"/><path class="d" d="M996.53,1198.061q1.511-3.606,3.024-7.216c.642-1.533,1.286-3.071,1.812-4.648.647-1.938,1.113-3.932,1.58-5.922q.833-3.555,1.664-7.109c1.19-5.083,2.4-10.21,4.661-14.913a16.78,16.78,0,0,1,2.925-4.461,8.166,8.166,0,0,1,4.616-2.52c1.842-.259,3.908,2.7,2.612,6.379-.165.474-1.511,4.631-1.772,5.87-.8,3.814-1.365,8.119-2.17,11.933-.427,2.024-1.18,7.472-1.34,8.376-.454,2.585-2.4,4.629-3.439,7.04a12.209,12.209,0,0,0-5.554.943,11.976,11.976,0,0,0-3.8,2.192C999.7,1195.37,998.051,1196.738,996.53,1198.061Z" transform="translate(-926.985 -1151.256)"/><path class="d" d="M955.612,1223.437a27.334,27.334,0,0,1,1.486-9.1c2.449-8.146,6.031-15.957,7.821-24.271.74-3.431,1.432-7.84,2.9-11.029a9.171,9.171,0,0,1,7.46-5.631,1.856,1.856,0,0,1,1.743.469,2.121,2.121,0,0,1-.022,1.955,113.33,113.33,0,0,0-4.55,16.13c-.269,1.19-1.412,6.867-1.735,8.042a27.575,27.575,0,0,1-1.711,4.152,62.561,62.561,0,0,0-3.515,9.576,5.42,5.42,0,0,1-.57,1.491,7.37,7.37,0,0,1-1.77,1.6,30.15,30.15,0,0,0-3.419,3.733A9.186,9.186,0,0,1,955.612,1223.437Z" transform="translate(-896.154 -1167.915)"/><path class="d" d="M913.8,1285.107c-.2-2.841,1.422-5.441,2.661-8.006,3.1-6.426,3.989-13.661,4.87-20.743a16.646,16.646,0,0,1,1.424-5.734,5.661,5.661,0,0,1,4.629-3.256,4.93,4.93,0,0,1,1.516.225c1.15.343.792,2.261.523,3.054-.341.995-.131,6.759-.773,8.267a78.846,78.846,0,0,0-5.609,21.459A61.874,61.874,0,0,0,913.8,1285.107Z" transform="translate(-864.663 -1223.641)"/></g><g transform="translate(0 36.713)"><path class="d" d="M181.883,1275.93c-2.713-6.717-6.734-10.245-12.015-13.543-8.173-5.107-12.977-10.906-18.485-17.248-1.992-2.293-3.927-4.962-2.091-7.379,1.274-1.676,4.969-2.083,7.048-1.76,10.366,1.617,16.048,10.827,24.57,16.947,8.018,5.757,16.327,6.915,25.377,10.857s16.436,7.751,23.844,17.465c5.606,7.351,6.638,19.4,7.3,28.625,1.555,21.758,2.318,43.657,1.787,65.464-15.177,0-27.742.775-42.81,0a210.53,210.53,0,0,0,4.476-23.059c1.326-11.4,3.11-23.076,3.873-34.528a25.006,25.006,0,0,0-.983-9c-1.187-4.113-5.907-7.21-9.136-10.017-11.657-10.131-27.895-15.582-35.594-28.971-5.6-9.746-5.781-11.96-9.864-17.744-2.1-2.979-4.619-5.7-6.231-8.968-1.627-3.3-2.5-7.252-3.868-10.669-2.353-5.855-6.561-10.388-9.294-16.075-.82-1.706-1.607-4.527-.163-5.75,1.358-1.148,5.152-.419,6.7.447,9.1,5.085,12.108,12.814,18.09,23.466-3.357.516-3.468.447-5.907,2.165-1.854,1.306-1.348,3.207-.467,5.3s3.646,4.567,5.152,6.265a111.153,111.153,0,0,0,11.773,11.79c1.612,1.378,3.184,2.367,4.9,3.614a52.149,52.149,0,0,1,6.589,5.268C179.079,1271.724,180.121,1274.165,181.883,1275.93Z" transform="translate(-128.819 -1195.486)"/><path class="d" d="M223.907,1198.061q-1.511-3.606-3.024-7.216c-.642-1.533-1.286-3.071-1.812-4.648-.647-1.938-1.113-3.932-1.58-5.922q-.833-3.555-1.664-7.109c-1.19-5.083-2.4-10.21-4.661-14.913a16.782,16.782,0,0,0-2.925-4.461,8.166,8.166,0,0,0-4.616-2.52c-1.842-.259-3.908,2.7-2.612,6.379.165.474,1.511,4.631,1.772,5.87.8,3.814,1.365,8.119,2.17,11.933.427,2.024,1.18,7.472,1.34,8.376.454,2.585,2.4,4.629,3.439,7.04a12.21,12.21,0,0,1,5.554.943,11.975,11.975,0,0,1,3.8,2.192C220.737,1195.37,222.386,1196.738,223.907,1198.061Z" transform="translate(-182.886 -1151.256)"/><path class="d" d="M269.837,1223.437a27.336,27.336,0,0,0-1.486-9.1c-2.449-8.146-6.031-15.957-7.82-24.271-.741-3.431-1.432-7.84-2.9-11.029a9.171,9.171,0,0,0-7.46-5.631,1.855,1.855,0,0,0-1.743.469,2.121,2.121,0,0,0,.022,1.955,113.31,113.31,0,0,1,4.55,16.13c.269,1.19,1.412,6.867,1.735,8.042a27.561,27.561,0,0,0,1.711,4.152,62.561,62.561,0,0,1,3.515,9.576,5.422,5.422,0,0,0,.57,1.491,7.368,7.368,0,0,0,1.77,1.6,30.145,30.145,0,0,1,3.419,3.733A9.186,9.186,0,0,0,269.837,1223.437Z" transform="translate(-218.728 -1167.915)"/><path class="d" d="M329.172,1285.107c.2-2.841-1.422-5.441-2.661-8.006-3.1-6.426-3.989-13.661-4.871-20.743a16.646,16.646,0,0,0-1.424-5.734,5.662,5.662,0,0,0-4.629-3.256,4.929,4.929,0,0,0-1.516.225c-1.15.343-.792,2.261-.523,3.054.341.995.131,6.759.773,8.267a78.844,78.844,0,0,1,5.609,21.459A61.874,61.874,0,0,1,329.172,1285.107Z" transform="translate(-267.742 -1223.641)"/></g></g></g></g></svg>
