<svg width="250" height="209" viewBox="0 0 250 209" fill="none" xmlns="http://www.w3.org/2000/svg">
<path d="M249.417 0.395835C245.573 0.125001 241.823 0 238.135 0C158.229 0 112.74 60.9167 96.1875 109.938L140.104 153.844C190.542 135.781 250 91.9792 250 12.9271C250 8.84375 249.75 4.66667 249.417 0.395835V0.395835ZM144.646 132.115L117.865 105.333C129.208 78.7709 161.458 22.2292 231.198 18.75C228.865 72.3854 193.656 111 144.646 132.115V132.115ZM195.479 146.396C190.396 149.865 185.344 152.99 180.354 155.781C178.615 164.052 174.198 172.896 167.802 180.427C167.792 175.073 166.292 169.677 163.677 164.281C159.083 166.365 154.719 168.167 150.542 169.74C156.677 185.615 150.427 197.333 142.042 208.333C154.083 207.427 166.719 201.531 176.667 191.573C187.417 180.833 194.948 165.344 195.479 146.396V146.396ZM85.6667 86.2917C80.2813 83.6979 74.9167 82.2292 69.5729 82.2084C77.0313 75.8854 85.7813 71.4896 93.9792 69.7084C96.8958 64.5729 100.177 59.5104 103.625 54.5313C84.6771 55.0417 69.1771 62.5938 58.4167 73.3333C48.4687 83.2813 42.5833 95.9271 41.6667 107.958C52.6667 99.5625 64.4062 93.3125 80.2708 99.4688C81.8854 95.0938 83.6667 90.6979 85.6667 86.2917V86.2917ZM157.552 92.4479C153.906 88.8229 153.906 82.9375 157.552 79.3125C161.177 75.6875 167.052 75.6875 170.687 79.3125C174.323 82.9479 174.323 88.8334 170.687 92.4584C167.052 96.0938 161.177 96.0938 157.552 92.4479V92.4479ZM203.531 46.4688C196.281 39.2188 184.51 39.2188 177.26 46.4688C170 53.7188 170 65.5 177.26 72.75C184.51 80.0104 196.281 80.0104 203.542 72.75C210.781 65.5 210.781 53.7188 203.531 46.4688ZM185.792 64.2083C183.26 61.6667 183.26 57.5417 185.792 55.0104C188.313 52.4688 192.458 52.4688 195.01 55.0104C197.531 57.5417 197.521 61.6667 195.01 64.2083C192.458 66.7396 188.323 66.7396 185.792 64.2083ZM118.167 158.208C100.104 177.417 80.0833 187.24 58.5833 187.24C25.25 187.24 0 162.719 0 131.917C0 116.448 6.36458 99.3959 21.2812 83.0729C-12.0625 136.583 33.0104 188.573 91.0104 131.063L98.9792 139.031C89.5 150.083 81.6771 159.625 68.0313 166.51C82.0313 167.104 97.9271 158.75 109.875 149.917L118.167 158.208V158.208Z" fill="#FAFAFF"/>
</svg>
